<svg xmlns="http://www.w3.org/2000/svg" width="22.001" height="30" viewBox="0 0 22.001 30">
  <defs>
    <style>
      .cls-1 {
        fill: #ea580c;
        fill-rule: evenodd;
      }
    </style>
  </defs>
  <g id="Location" transform="translate(0.001 0)">
    <path id="Path_21" data-name="Path 21" class="cls-1" d="M6582.635,4459.312a10.919,10.919,0,0,0-21.835,0s-1.752,5.974,10.917,19.248C6584.388,4465.286,6582.635,4459.312,6582.635,4459.312Zm-9.655-.94,1.283,1.331-.47.1a15.09,15.09,0,0,1,2.489,2.247,14.814,14.814,0,0,1-1.118,2.5,9.271,9.271,0,0,0-1.048-2.337c.016.106.853,6.07.877,6.237l-1.455.293h-3.488l-1.454-.293.876-6.238q-.5.5-1.048.942a15.217,15.217,0,0,1-2.535-1.1,9.477,9.477,0,0,0,3.907-2.247l-.471-.1,1.3-1.346a15.206,15.206,0,0,1-3.531-2.948,14.77,14.77,0,0,1,1.118-2.5,9.281,9.281,0,0,0,3.188,4.641l.4-.412.4.412a15.1,15.1,0,0,1,2.821-3.245,15.263,15.263,0,0,1,2.536,1.1,9.437,9.437,0,0,0-4.582,2.948Z" transform="translate(-6560.719 -4448.561)"/>
  </g>
</svg>
