<svg id="Menu" xmlns="http://www.w3.org/2000/svg" width="22" height="30" viewBox="0 0 22 30">
  <path id="Path_42" data-name="Path 42" d="M6365.5,5202.963l-.951-2.651a1.606,1.606,0,0,0-1.493-1.238h-8.62l-.468-1.688a1.48,1.48,0,0,0-1.451-.99h-1.708a1.423,1.423,0,0,0-1.395.951l-.479,1.727h-.022a1.614,1.614,0,0,0-1.493,1.238l-.958,2.651a1.7,1.7,0,0,0-1.478,1.78v1.779a1.7,1.7,0,0,0,1.572,1.807h.816c0,.072-.023.136-.023.2l.011.11,1.561,16.151a1.671,1.671,0,0,0,1.563,1.608h11a1.666,1.666,0,0,0,1.564-1.608l1.561-16.151.01-.11a1.754,1.754,0,0,0-.016-.2h.81a1.7,1.7,0,0,0,1.571-1.807v-1.779A1.7,1.7,0,0,0,6365.5,5202.963Zm-14.923-5.227a.358.358,0,0,1,.233-.083h1.708a.564.564,0,0,1,.268.077l.371,1.339h-2.941Zm-2.446,5.2h0l.786-2.055h14.143l.6,1.557.189.5h0c.1.247.251.58.462.991H6347.67C6347.881,5203.517,6348.031,5203.184,6348.133,5202.937Zm14.9,5.7-.122,1.271-.109,1.129-.087.9-.549,5.682-.012.122h0l-.088.9h.006l-.223,2.327h-.007l-.1,1.046-.245,2.567h-11l-.259-2.71h0l-.086-.9h0l-.224-2.327h.006l-.086-.9h-.007l-.561-5.8-.086-.9h-.008l-.229-2.4-.03-.309h14.143Zm2.386-2.116H6346.56v-1.691h5.368l4.06.066,4.06-.066h5.369Z" transform="translate(-6344.988 -5196.396)" fill="#ea580c"/>
  <path id="Path_43" data-name="Path 43" d="M6361.8,5232.67c.03.015.042.015.066-.008.2-.187.461-.42.8-.795l-.582,4.091a10.2,10.2,0,0,0,1.045.2h2.283a10.353,10.353,0,0,0,1.122-.2l-.663-4.445a6.833,6.833,0,0,1,.986,1.93c.006-.012.9-1.646.9-1.654s0-.032-.018-.049a11.09,11.09,0,0,0-1.93-1.713l.222-.048c.021,0,.025-.021.012-.036l-.817-.883.119-.144a6.781,6.781,0,0,1,3.178-2.171c-.188-.1-1.633-.893-1.633-.893a.05.05,0,0,0-.055,0,11.131,11.131,0,0,0-2.161,2.614c-.008-.009-.309-.336-.32-.341a.035.035,0,0,0-.04.008l-.205.216-.114-.091a6.78,6.78,0,0,1-2.17-3.178c-.008.015-.908,1.66-.9,1.673a.07.07,0,0,0,.018.028,11.16,11.16,0,0,0,2.615,2.155c-.949,1-1,1.033-.947,1.045l.275.058a.042.042,0,0,1,.03.042,6.784,6.784,0,0,1-2.752,1.7C6360.448,5231.924,6361.8,5232.67,6361.8,5232.67Z" transform="translate(-6353.35 -5211.708)" fill="#ea580c"/>
</svg>
