<svg xmlns="http://www.w3.org/2000/svg" width="292" height="70" viewBox="0 0 292 70"><g transform="translate(-8240.397 -3887.94)"><g transform="translate(8240.397 3890.281)"><path d="M8271.644,3917.554l1.855-.386-5.068-5.268-.06-.062a37.282,37.282,0,0,1,18.112-11.67,60.311,60.311,0,0,0-10.023-4.357,59.645,59.645,0,0,0-11.149,12.845l-1.569-1.633-1.569,1.633a36.775,36.775,0,0,1-12.6-18.375,58.619,58.619,0,0,0-4.417,9.885,60.019,60.019,0,0,0,13.958,11.672l-5.127,5.331,1.856.386a37.473,37.473,0,0,1-15.443,8.9,60.235,60.235,0,0,0,10.021,4.357q2.149-1.759,4.145-3.731l-3.466,24.7,5.749,1.159h13.789l5.749-1.159c-.092-.661-3.4-24.274-3.465-24.692a36.764,36.764,0,0,1,4.146,9.254,58.638,58.638,0,0,0,4.417-9.885A59.837,59.837,0,0,0,8271.644,3917.554Z" transform="translate(-8240.397 -3890.281)" fill="#ea580c"/><path d="M8279.136,3951.064a.4.4,0,0,0-.409-.409h-.536v1.328h.318v-1.047h.167a.157.157,0,0,1,.153.166.15.15,0,0,1-.153.166h-.116v.166l.32.549h.358l-.32-.549A.381.381,0,0,0,8279.136,3951.064Z" transform="translate(-8240.397 -3891.144)" fill="#ea580c"/><path d="M8278.662,3950.016a1.3,1.3,0,1,0,1.33,1.3A1.315,1.315,0,0,0,8278.662,3950.016Zm0,2.313a1.016,1.016,0,1,1,1.01-1.01A1,1,0,0,1,8278.662,3952.329Z" transform="translate(-8240.397 -3891.144)" fill="#ea580c"/></g><g transform="translate(8303.908 3887.94)"><rect width="3.953" height="70" fill="#ea580c"/></g><g transform="translate(8329.422 3891.404)"><path d="M8492.049,3949.575a8.983,8.983,0,0,1-1.532-6.548H8329.855v7.62h163.235A6.818,6.818,0,0,1,8492.049,3949.575Z" transform="translate(-8329.855 -3892.267)" fill="#006098"/><path d="M8507.459,3955.719a3.854,3.854,0,0,0,3.674-1.68,2.505,2.505,0,0,0,1.582,1.04,3.2,3.2,0,0,0,.591.056c3.407,0,5.234-5.713,5.314-5.969a11.5,11.5,0,0,0,.471-2.46,3.907,3.907,0,0,0,.407.169,5.535,5.535,0,0,0,4.365-1.043,3.646,3.646,0,0,0,1.722,1.12c2.7.825,6.253-2.211,6.729-3.327l.035-.084a3.046,3.046,0,0,0,.245-.792,4.6,4.6,0,0,0,.11-.676,1.779,1.779,0,0,0-.428-1.554,3.739,3.739,0,0,0,.265-3.371,3.092,3.092,0,0,0-1.946-1.636,4.68,4.68,0,0,0-4.391,1.148,3.143,3.143,0,0,0-1.7-1.225,3.989,3.989,0,0,0-2.468.047c.456-.542.864-1.015,1.173-1.373.828-.958.936-1.081,1.046-1.439a1.771,1.771,0,0,0-.116-1.351,2.5,2.5,0,0,0-2.172-1.136,4.193,4.193,0,0,0-1.653.134,3.54,3.54,0,0,0-1.306.735,2,2,0,0,0-.639-1.036,2.893,2.893,0,0,0-1.555-.586,3.506,3.506,0,0,0-1.593.23,4.753,4.753,0,0,0-1.812,1.265,3.6,3.6,0,0,0-.3.333,4.966,4.966,0,0,0-.715-2.035c-.772-1.216-2.429-2.609-5.976-2.326a15.223,15.223,0,0,0-7.068,2.542h-169.5v6.788h163.078l-.006.011a18.053,18.053,0,0,0-2.307,5.992c-.039.228-.062.45-.088.674,0,.041-.011.082-.017.123a8.983,8.983,0,0,0,1.532,6.548,6.818,6.818,0,0,0,1.042,1.072,8.318,8.318,0,0,0,4.676,1.774,13.222,13.222,0,0,0,7.358-1.42,6.531,6.531,0,0,0,.6,3.477A2.54,2.54,0,0,0,8507.459,3955.719Z" transform="translate(-8329.855 -3892.267)" fill="#fde021"/><path d="M8506.322,3940.549c-.051-1.052-.8-1.361-1.514-.771C8504.862,3940.336,8505.761,3940.555,8506.322,3940.549Z" transform="translate(-8329.855 -3892.059)" fill="#fde021"/><path d="M8506.094,3941.9a2.382,2.382,0,0,1-2.212-.787c-.4.912-.642,2.346.308,2.526C8505.019,3943.791,8505.74,3942.891,8506.094,3941.9Z" transform="translate(-8329.855 -3892.098)" fill="#fde021"/><path d="M8515.429,3943.053a14.309,14.309,0,0,0-.685,1.882c-.131.42-1.605,5.133-.759,5.293.393.074,1.123-1.748,1.246-2.143A9.969,9.969,0,0,0,8515.429,3943.053Z" transform="translate(-8329.855 -3892.267)" fill="#fde021"/><path d="M8511.178,3941.5a10.144,10.144,0,0,1,.7,1.682,10.409,10.409,0,0,1,.463,3.938c.187-.9.4-1.719.591-2.324a22.627,22.627,0,0,1,1.483-3.718.5.5,0,0,0-.026-.092c-1.262.123-1.946.172-3.1.27C8511.255,3941.327,8511.221,3941.4,8511.178,3941.5Z" transform="translate(-8329.855 -3892.267)" fill="#fde021"/><path d="M8523.1,3939.671c.081-.189.156-.625-.105-.7-.653-.2-1.506,1.281-1.817,2.011A2.779,2.779,0,0,0,8523.1,3939.671Z" transform="translate(-8329.855 -3892.062)" fill="#fde021"/><path d="M8529.185,3939.748c.081-.19.155-.625-.105-.705-.653-.2-1.506,1.281-1.818,2.011A2.779,2.779,0,0,0,8529.185,3939.748Z" transform="translate(-8329.855 -3892.063)" fill="#fde021"/><path d="M8510.173,3943.693a14.307,14.307,0,0,0-.685,1.883c-.244.782-1.57,5.139-.76,5.292.394.075,1.123-1.747,1.247-2.142A10.091,10.091,0,0,0,8510.173,3943.693Z" transform="translate(-8329.855 -3892.267)" fill="#fde021"/><path d="M8490.517,3943.027c.006-.041.012-.082.017-.123.026-.224.049-.446.088-.674a18.053,18.053,0,0,1,2.307-5.992H8329.855v6.789Z" transform="translate(-8329.855 -3892.076)" fill="#d7282f"/><path d="M8387.036,3904.139v18.4h5.517v-18.433h4.854v-5.052h-15.227v5.085Z" transform="translate(-8329.855 -3891.404)" fill="#006098"/><path d="M8402.328,3919.31a12.12,12.12,0,0,0,13.412,2.489,11.427,11.427,0,0,0,2.1-1.2,6.983,6.983,0,0,0,.745-.615l-3.536-4.028a6.347,6.347,0,0,1-10.71-5.163,6.749,6.749,0,0,1,6.443-6.954,6.843,6.843,0,0,1,4.267,1.763l3.536-4a6.955,6.955,0,0,0-.754-.628,12.093,12.093,0,0,0-9.42-1.961,12.022,12.022,0,0,0-6.081,20.291Z" transform="translate(-8329.855 -3891.404)" fill="#006098"/><path d="M8438.729,3922.542V3899.05h-5.519v9.172h-6.146V3891.4h-5.516v31.138h5.516v-9.264h6.146v9.264Z" transform="translate(-8329.855 -3891.404)" fill="#006098"/><path d="M8503.639,3922.8a12.021,12.021,0,1,0-12.021-12.021A12,12,0,0,0,8503.639,3922.8Zm4.594-16.938a7.324,7.324,0,0,1,0,9.8,6.275,6.275,0,0,1-3.926,2.009c-3.876.422-7.172-2.9-7.172-6.887a6.706,6.706,0,0,1,7.172-6.919A6.261,6.261,0,0,1,8508.232,3905.859Z" transform="translate(-8329.855 -3891.404)" fill="#006098"/><path d="M8524.31,3912.858c1.674.6,2.936.948,2.936,2.9a1.912,1.912,0,0,1-1.893,1.956,3.248,3.248,0,0,1-2.84-2.082l-4.548,1.766a8.638,8.638,0,0,0,1.479,2.714,7,7,0,0,0,5.807,2.683h.268a7.1,7.1,0,0,0,7.252-7.037,6.47,6.47,0,0,0-2.021-4.995,13.838,13.838,0,0,0-4.1-2.483c-1.02-.389-3.03-1.078-3.03-2.555a1.768,1.768,0,0,1,2.119-1.8,2.588,2.588,0,0,1,1.415,1.358l4.948-2.176a6.937,6.937,0,0,0-6.514-4.356c-4.575,0-7.484,2.85-7.484,7.163C8518.1,3909.341,8521.072,3911.841,8524.31,3912.858Z" transform="translate(-8329.855 -3891.404)" fill="#006098"/><path d="M8368.427,3922.8c5.2,0,9.672-3.516,9.672-8.976v-14.766h-5.516l0,14.5a4.147,4.147,0,1,1-8.293,0v-14.5h-5.517v14.766C8358.771,3919.256,8363.206,3922.8,8368.427,3922.8Z" transform="translate(-8329.855 -3891.404)" fill="#006098"/><path d="M8477.909,3922.526v-18.441h3.073a2.351,2.351,0,0,1,1.571.544,3.07,3.07,0,0,1,.955,2.337,3.017,3.017,0,0,1-.955,2.359,2.394,2.394,0,0,1-1.571.523h-1.992v2.928l5.622,9.75h6.2l-5.594-9.739a6.672,6.672,0,0,0,3.771-6.407,7.163,7.163,0,0,0-7.256-7.351h-9.345v23.5Z" transform="translate(-8329.855 -3891.404)" fill="#006098"/><path d="M8465.194,3905.991a8.249,8.249,0,0,0,1.518-5,8.407,8.407,0,0,0-7.88-8.281.147.147,0,0,0-.085-.035.831.831,0,0,0-.115-.005h-10.823v29.926h11.3a9.458,9.458,0,0,0,9.28-9.482A9.6,9.6,0,0,0,8465.194,3905.991Zm-4.446-4.89a3.123,3.123,0,0,1-3.113,3.081h-3.842v-6.029h3.6a3.94,3.94,0,0,1,.685.059A3.033,3.033,0,0,1,8460.748,3901.1Zm-6.955,8.571h4.62a3.728,3.728,0,1,1,0,7.437h-4.62Z" transform="translate(-8329.855 -3891.404)" fill="#006098"/><path d="M8339.818,3922.594a14.963,14.963,0,1,0,0-29.926h-9.963v29.926Zm-3.979-24.441h3.879c5.389,0,9.159,3.988,9.159,9.478a9.182,9.182,0,0,1-9.4,9.478h-3.639Z" transform="translate(-8329.855 -3891.404)" fill="#006098"/><path d="M8531.109,3939.483a1.712,1.712,0,0,0-.956-2.526c-2.283-.7-5,2.468-5.562,4.777-1.921,2.192-3.755,1.541-3.7.35a5.185,5.185,0,0,0,2.238-.719c2.578-1.5,2.664-3.956.94-4.485-1.5-.458-2.989.7-4,1.894a23.306,23.306,0,0,1-2.778.535,76.314,76.314,0,0,1,5.533-7.088.273.273,0,0,0-.016-.2c-.125-.257-.661-.3-.96-.327a2.19,2.19,0,0,0-2.166.852c-.584.731-2.276,3.236-4.454,6.7-.8.117-2.118.3-3.09.438,1.659-2.46,4.317-6.261,4.827-6.872a1.931,1.931,0,0,0,.615-1.083.661.661,0,0,0-.175-.548,1.805,1.805,0,0,0-1.637-.1,3.536,3.536,0,0,0-1.33.968c-1,.913-4.082,6.914-4.692,8.112-.509.045-1.187.11-1.684.17a1.678,1.678,0,0,0-.839-1.562.776.776,0,0,0-.019-.544c-.205-.649-.781-.828-1.457-.828-3.862,0-6.507,7.768-2.476,8.531,2.373.45,4.142-1.922,4.666-4.286.377-.055.755-.1,1.131-.146a.66.66,0,0,1,.092.238,23.647,23.647,0,0,0-1.524,3.855c-2.312,2.5-4.794,3.748-8.079,3.233-9.435-1.43,1.045-17.825,8-19a1.881,1.881,0,0,1,.313-.029c.982,0,1.15,1-.351,3.281l-.457.8c-.932,1.471-.476,2.831,1.77,3.287a.652.652,0,0,0,.651-.265,25.856,25.856,0,0,0,1.639-2.681c1.038-1.826,1.017-5.835-3.8-5.835-7.067,0-14.009,7.313-15.2,14.115-.719,4.193.838,8.012,5.788,8.431a11.5,11.5,0,0,0,9.188-3.163c-.362,1.729-1.089,6.153.654,6.483,2,.379,3.77-3.331,4.288-5.29-.3,2.247-.229,4.423.968,4.649,1.932.366,3.622-3.086,4.183-4.88a10.409,10.409,0,0,0-.745-7.85c.007-.015.016-.03.022-.045.771-.077,1.5-.158,2.466-.344-.685,1.4-1.2,4.274,1.02,4.955,1.374.421,3.518-1.018,4.5-1.988a2.211,2.211,0,0,0,1.588,2.065c1.735.533,4.647-1.893,4.9-2.474a3.592,3.592,0,0,0,.278-1.114c0-.088.093-.363-.1-.423-.112-.034-.211.066-.288.156-1.973,2.411-3.888,1.691-3.836.506A5.12,5.12,0,0,0,8531.109,3939.483Zm-8.117-.516c.262.08.187.516.105.705a2.78,2.78,0,0,1-1.923,1.306C8521.477,3940.268,8522.333,3938.766,8522.992,3938.967Zm-18.8,4.668c-.949-.18-.707-1.614-.308-2.526a2.384,2.384,0,0,0,2.212.787C8505.784,3942.768,8505.082,3943.8,8504.189,3943.635Zm.619-3.856c.711-.59,1.463-.281,1.514.771C8505.763,3940.556,8504.862,3940.338,8504.809,3939.779Zm5.167,8.948c-.12.387-.824,2.145-1.223,2.145-1,0,.895-6.1,1.42-7.178A10.1,10.1,0,0,1,8509.976,3948.727Zm2.363-1.6a10.646,10.646,0,0,0-1.161-5.62c.043-.105.077-.178.11-.244,1.152-.1,1.837-.146,3.1-.27a.519.519,0,0,1,.026.092A24.319,24.319,0,0,0,8512.339,3947.126Zm2.893.961c-.12.386-.824,2.144-1.223,2.144-1.008,0,.911-6.132,1.42-7.177A9.973,9.973,0,0,1,8515.231,3948.087Zm13.953-8.338a2.779,2.779,0,0,1-1.924,1.306c.311-.727,1.164-2.211,1.818-2.011C8529.34,3939.124,8529.266,3939.559,8529.185,3939.749Z" transform="translate(-8329.855 -3892.267)" fill="#d7282f"/><g transform="translate(199.112 35.197)"><path d="M8532.572,3928.875a1.8,1.8,0,1,1-1.8-1.767A1.795,1.795,0,0,1,8532.572,3928.875Zm-.435,0a1.375,1.375,0,0,0-1.369-1.386,1.39,1.39,0,0,0-1.385,1.386,1.376,1.376,0,0,0,1.385,1.369A1.36,1.36,0,0,0,8532.138,3928.875Zm-.727-.346a.547.547,0,0,0-.554-.555h-.729v1.8h.433v-1.421h.227a.214.214,0,0,1,.207.226.2.2,0,0,1-.207.225h-.157v.225l.434.745h.484l-.433-.745A.515.515,0,0,0,8531.411,3928.529Z" transform="translate(-8528.968 -3927.108)" fill="#006098"/></g></g></g></svg>